# xmcd
#
# Track frame offsets:
#	150
#	21317
#	44173
#	65686
#	89046
#	120347
#
# Disc length: 3733 seconds
# Revision: 0
# Processed by: cddbd v1.5.2PL0 Copyright (c) Steve Scherf et al.
# Submitted via: dBpowerAMP V12.0
#
DISCID=550e9306
DTITLE=Star One - Victims of the Modern Age Disc2
DYEAR=2010
DGENRE=Rock
TTITLE0=As the Crow Dies
TTITLE1=Two Plus Two Equals Five
TTITLE2=Lastday
TTITLE3=Closer to the Stars
TTITLE4=Knife Edge
TTITLE5=DATA
EXTD=
EXTT0=
EXTT1=
EXTT2=
EXTT3=
EXTT4=
EXTT5=
PLAYORDER=
